<?xml version="1.0" encoding="utf-8"?>
<!-- Generator: Adobe Illustrator 27.7.0, SVG Export Plug-In . SVG Version: 6.00 Build 0)  -->
<svg version="1.1" id="Capa_1" xmlns="http://www.w3.org/2000/svg" xmlns:xlink="http://www.w3.org/1999/xlink" x="0px" y="0px"
	 viewBox="0 0 232.7 110.2" style="enable-background:new 0 0 232.7 110.2;" xml:space="preserve">
<style type="text/css">
	
		.st0{clip-path:url(#SVGID_00000015354614259330801590000006635598924890316461_);fill-rule:evenodd;clip-rule:evenodd;fill:#004F85;}
	
		.st1{clip-path:url(#SVGID_00000132802904435805437150000001108179182755624073_);fill-rule:evenodd;clip-rule:evenodd;fill:#FFFFFF;}
	
		.st2{clip-path:url(#SVGID_00000076575108755929650160000002046426330903919767_);fill-rule:evenodd;clip-rule:evenodd;fill:#004F85;}
	
		.st3{clip-path:url(#SVGID_00000160877986193693606920000012924551461379222440_);fill-rule:evenodd;clip-rule:evenodd;fill:#9B9B9A;}
	
		.st4{clip-path:url(#SVGID_00000033360475551659093510000008151174037270310581_);fill-rule:evenodd;clip-rule:evenodd;fill:#9B9B9A;}
	
		.st5{clip-path:url(#SVGID_00000059298494726535435530000000268343381058697908_);fill-rule:evenodd;clip-rule:evenodd;fill:#FFFFFF;}
	
		.st6{clip-path:url(#SVGID_00000183946765057265812860000017133555363504847490_);fill-rule:evenodd;clip-rule:evenodd;fill:#004F85;}
	
		.st7{clip-path:url(#SVGID_00000120532986934008350260000005947869688117357711_);fill-rule:evenodd;clip-rule:evenodd;fill:#9B9B9A;}
	
		.st8{clip-path:url(#SVGID_00000055680002673839998080000004455538030399016625_);fill-rule:evenodd;clip-rule:evenodd;fill:#9B9B9A;}
	
		.st9{clip-path:url(#SVGID_00000027585382578471188580000011106170855717268383_);fill-rule:evenodd;clip-rule:evenodd;fill:#9B9B9A;}
	
		.st10{clip-path:url(#SVGID_00000051367140198956179520000006731267036697342102_);fill-rule:evenodd;clip-rule:evenodd;fill:#9B9B9A;}
	
		.st11{clip-path:url(#SVGID_00000103223455438261625710000010371073188292491938_);fill-rule:evenodd;clip-rule:evenodd;fill:#9B9B9A;}
	
		.st12{clip-path:url(#SVGID_00000052792620332344059350000003205906867258169498_);fill-rule:evenodd;clip-rule:evenodd;fill:#004F85;}
	
		.st13{clip-path:url(#SVGID_00000005973759673608791760000013621563218632883642_);fill-rule:evenodd;clip-rule:evenodd;fill:#004F85;}
	
		.st14{clip-path:url(#SVGID_00000023251182701156263820000017141518520170792633_);fill-rule:evenodd;clip-rule:evenodd;fill:#004F85;}
	
		.st15{clip-path:url(#SVGID_00000024712587721281325270000016444471430306166161_);fill-rule:evenodd;clip-rule:evenodd;fill:#004F85;}
	
		.st16{clip-path:url(#SVGID_00000055706713518108257210000002791402039262657969_);fill-rule:evenodd;clip-rule:evenodd;fill:#004F85;}
	
		.st17{clip-path:url(#SVGID_00000048481232440299498510000015159480669370342315_);fill-rule:evenodd;clip-rule:evenodd;fill:#004F85;}
	
		.st18{clip-path:url(#SVGID_00000068678313244704475620000009812861476877538483_);fill-rule:evenodd;clip-rule:evenodd;fill:#004F85;}
	
		.st19{clip-path:url(#SVGID_00000098178729697295932750000010203715082608299905_);fill-rule:evenodd;clip-rule:evenodd;fill:#004F85;}
	
		.st20{clip-path:url(#SVGID_00000123418088080343423400000009499541611718964394_);fill-rule:evenodd;clip-rule:evenodd;fill:#004F85;}
	
		.st21{clip-path:url(#SVGID_00000158009087989519350560000001320332903690361786_);fill-rule:evenodd;clip-rule:evenodd;fill:#004F85;}
	
		.st22{clip-path:url(#SVGID_00000050622892417231677740000015494470494363383741_);fill-rule:evenodd;clip-rule:evenodd;fill:#004F85;}
	
		.st23{clip-path:url(#SVGID_00000151507730349125097600000008523338452184248766_);fill-rule:evenodd;clip-rule:evenodd;fill:#004F85;}
	
		.st24{clip-path:url(#SVGID_00000111904326337757864470000017226556021775864963_);fill-rule:evenodd;clip-rule:evenodd;fill:#004F85;}
	
		.st25{clip-path:url(#SVGID_00000151521270094401641320000016434135235034178469_);fill-rule:evenodd;clip-rule:evenodd;fill:#004F85;}
	.st26{fill:#0082CA;}
	.st27{fill:#FFFFFF;}
	.st28{font-family:'ArialNarrow';}
	.st29{font-size:10.4911px;}
	.st30{clip-path:url(#SVGID_00000078024419451909589260000006096432566457652387_);fill:#003594;}
	.st31{clip-path:url(#SVGID_00000078024419451909589260000006096432566457652387_);fill:#FFFFFF;}
</style>
<g>
	<g>
		<g>
			<defs>
				<rect id="SVGID_1_" x="151.9" y="5.8" width="80.7" height="81.8"/>
			</defs>
			<clipPath id="SVGID_00000008136795332656674740000012975717490805815452_">
				<use xlink:href="#SVGID_1_"  style="overflow:visible;"/>
			</clipPath>
			
				<path style="clip-path:url(#SVGID_00000008136795332656674740000012975717490805815452_);fill-rule:evenodd;clip-rule:evenodd;fill:#004F85;" d="
				M192.6,15c20.6-0.2,31,19.5,30.7,29.1c0,0.2,0.3,0.3,0.2,0.3h-9.6c-0.5-11.5-11.5-20.4-21.2-20.2c-12.6,0.3-21,9.9-22.3,20.2
				h-9.3c-0.1,0-0.2-0.1-0.1-0.3C163.3,29.9,172.7,15.1,192.6,15"/>
		</g>
		<g>
			<defs>
				<rect id="SVGID_00000166669047491292164520000011037888702024946853_" x="151.9" y="5.8" width="80.7" height="81.8"/>
			</defs>
			<clipPath id="SVGID_00000069390701479714706180000008665713611399306117_">
				<use xlink:href="#SVGID_00000166669047491292164520000011037888702024946853_"  style="overflow:visible;"/>
			</clipPath>
			
				<path style="clip-path:url(#SVGID_00000069390701479714706180000008665713611399306117_);fill-rule:evenodd;clip-rule:evenodd;fill:#FFFFFF;" d="
				M212.9,33.7l0.4,0.8c0.1,0.2,0.2,0.4,0.4,0.5c0.1,0.1,0.2,0.2,0.4,0.2c0.2,0.1,0.4,0.1,0.6,0c0.2,0,0.5-0.1,0.7-0.3
				c0.4-0.2,0.6-0.4,0.8-0.6c0.1-0.2,0.2-0.5,0.2-0.7s-0.1-0.4-0.2-0.7l-0.4-0.8L212.9,33.7z M212.3,33.5l3.6-1.9l0.6,1.3
				c0.1,0.3,0.2,0.5,0.3,0.7s0.1,0.5,0,0.7c-0.1,0.3-0.2,0.5-0.4,0.8c-0.2,0.2-0.5,0.4-0.8,0.6c-0.3,0.1-0.5,0.2-0.8,0.3
				c-0.2,0-0.5,0.1-0.7,0c-0.2,0-0.4-0.1-0.5-0.2c-0.1-0.1-0.3-0.2-0.4-0.3c-0.1-0.2-0.2-0.3-0.4-0.6L212.3,33.5z M208,28l2.8-3
				l2.1,2.1l-0.3,0.3l-1.7-1.7l-0.9,0.9l1.6,1.6l-0.3,0.3l-1.6-1.6l-1,1l1.8,1.8l-0.3,0.4L208,28z M204.2,25.3l2-3.6l0.5,0.3l-2,3.6
				L204.2,25.3z M198,22.7l1.2-3.9l2.6,0.8l-0.1,0.5l-2.1-0.7l-0.4,1.2l1.8,0.6l-0.1,0.5l-1.8-0.6l-0.5,1.8L198,22.7z M193.4,22.2
				l0.3-4.1h0.5l-0.3,4.1H193.4z M187.7,22.6l-0.6-3.6l-1.3,0.2l-0.1-0.5l3.2-0.5l0.1,0.5l-1.3,0.2l0.6,3.6L187.7,22.6z M179.6,23.3
				l1-0.5c0.2-0.1,0.4-0.2,0.5-0.3c0.1-0.1,0.2-0.2,0.2-0.4c0-0.1,0-0.3-0.1-0.4c-0.1-0.2-0.2-0.3-0.4-0.3s-0.4,0-0.7,0.1l-1.1,0.6
				L179.6,23.3z M180.2,25.6l-1.9-3.6l1.6-0.9c0.3-0.2,0.6-0.3,0.8-0.3s0.4,0,0.6,0.1c0.2,0.1,0.3,0.3,0.4,0.5
				c0.1,0.3,0.2,0.5,0.1,0.8c-0.1,0.3-0.3,0.5-0.6,0.7c0.2,0,0.3,0,0.4,0c0.2,0.1,0.4,0.1,0.6,0.3l1.1,0.7l-0.6,0.3l-0.9-0.5
				c-0.3-0.1-0.5-0.2-0.6-0.3c-0.2-0.1-0.3-0.1-0.4-0.1c-0.1,0-0.2,0-0.3,0s-0.2,0.1-0.3,0.1l-0.5,0.3l0.8,1.6L180.2,25.6z
				 M174.9,30l-2.8-3l2.1-2.1l0.3,0.3l-1.7,1.7l0.9,0.9l1.6-1.6l0.3,0.3l-1.6,1.6l1,1l1.8-1.8l0.3,0.3L174.9,30z M171.2,33.1
				l0.4-0.4c0.3,0.3,0.5,0.6,0.6,1s0,0.7-0.2,1.1c-0.2,0.4-0.4,0.7-0.7,0.8c-0.3,0.2-0.6,0.2-1,0.2s-0.7-0.1-1.1-0.3
				c-0.4-0.2-0.7-0.4-0.9-0.7s-0.3-0.6-0.3-1c0-0.3,0.1-0.7,0.2-1c0.2-0.4,0.4-0.6,0.7-0.8s0.7-0.2,1-0.1l-0.1,0.5
				c-0.3-0.1-0.6,0-0.8,0.1s-0.4,0.3-0.5,0.5c-0.1,0.3-0.2,0.6-0.2,0.8c0,0.3,0.2,0.5,0.3,0.7c0.2,0.2,0.4,0.4,0.6,0.5
				c0.3,0.2,0.6,0.3,0.9,0.3c0.3,0,0.5,0,0.7-0.2c0.2-0.1,0.4-0.3,0.5-0.5c0.1-0.3,0.2-0.5,0.1-0.8
				C171.6,33.6,171.5,33.3,171.2,33.1"/>
		</g>
		<g>
			<defs>
				<rect id="SVGID_00000026151435521904106600000003740057435216998797_" x="151.9" y="5.8" width="80.7" height="81.8"/>
			</defs>
			<clipPath id="SVGID_00000102519520015482633670000014736823123907882624_">
				<use xlink:href="#SVGID_00000026151435521904106600000003740057435216998797_"  style="overflow:visible;"/>
			</clipPath>
			
				<path style="clip-path:url(#SVGID_00000102519520015482633670000014736823123907882624_);fill-rule:evenodd;clip-rule:evenodd;fill:#004F85;" d="
				M191.9,78c-20.6,0.2-31-19.5-30.7-29.1c0-0.2-0.3-0.3-0.2-0.3h9.6c0.5,11.5,11.5,20.4,21.2,20.2c12.6-0.3,21-9.9,22.3-20.2h9.3
				c0.1,0,0.2,0.1,0.1,0.3C221.2,63.2,211.9,77.9,191.9,78"/>
		</g>
		<g>
			<defs>
				<rect id="SVGID_00000037689860837949098730000013775605199329154725_" x="151.9" y="5.8" width="80.7" height="81.8"/>
			</defs>
			<clipPath id="SVGID_00000119818502137012815130000015195709462150078341_">
				<use xlink:href="#SVGID_00000037689860837949098730000013775605199329154725_"  style="overflow:visible;"/>
			</clipPath>
			
				<rect x="161.1" y="45.9" style="clip-path:url(#SVGID_00000119818502137012815130000015195709462150078341_);fill-rule:evenodd;clip-rule:evenodd;fill:#9B9B9A;" width="9.4" height="1.4"/>
		</g>
		<g>
			<defs>
				<rect id="SVGID_00000032639743649395257480000000976032816298101889_" x="151.9" y="5.8" width="80.7" height="81.8"/>
			</defs>
			<clipPath id="SVGID_00000073709292207768305800000013393261430322261415_">
				<use xlink:href="#SVGID_00000032639743649395257480000000976032816298101889_"  style="overflow:visible;"/>
			</clipPath>
			
				<rect x="214.2" y="45.9" style="clip-path:url(#SVGID_00000073709292207768305800000013393261430322261415_);fill-rule:evenodd;clip-rule:evenodd;fill:#9B9B9A;" width="9.4" height="1.4"/>
		</g>
		<g>
			<defs>
				<rect id="SVGID_00000131334365266447597990000013370107902687212990_" x="151.9" y="5.8" width="80.7" height="81.8"/>
			</defs>
			<clipPath id="SVGID_00000126283394170664682990000017093301028616519058_">
				<use xlink:href="#SVGID_00000131334365266447597990000013370107902687212990_"  style="overflow:visible;"/>
			</clipPath>
			
				<path style="clip-path:url(#SVGID_00000126283394170664682990000017093301028616519058_);fill-rule:evenodd;clip-rule:evenodd;fill:#FFFFFF;" d="
				M216.8,60.3l-3.8-1.4l0.3-0.8l3,0.1c0.3,0,0.5,0,0.6,0c-0.1-0.1-0.3-0.2-0.5-0.4l-2.3-1.9l0.2-0.7l3.8,1.4l-0.2,0.5l-3.2-1.2
				l2.8,2.3l-0.2,0.5l-3.6-0.1l3.2,1.2L216.8,60.3z M215,63.6l-3.5-2l1.4-2.6l0.4,0.2l-1.2,2.1l1.1,0.6l1.1-2l0.4,0.2l-1.1,2
				l1.2,0.7l1.2-2.2l0.4,0.2L215,63.6z M213.4,65.8l-2.9-2.2l-0.8,1.1l-0.4-0.3l1.9-2.6l0.4,0.3l-0.8,1.1l2.9,2.2L213.4,65.8z
				 M209,68.6l0.3-0.4c0.2,0.1,0.3,0.2,0.5,0.2s0.3,0,0.5-0.1s0.4-0.2,0.5-0.4c0.1-0.1,0.3-0.3,0.3-0.5c0.1-0.2,0.1-0.3,0.1-0.4
				s-0.1-0.2-0.2-0.3c-0.1-0.1-0.2-0.1-0.3-0.2c-0.1,0-0.3,0-0.4,0.1c-0.1,0-0.3,0.2-0.7,0.4c-0.3,0.2-0.6,0.3-0.7,0.4
				c-0.2,0.1-0.4,0.1-0.6,0c-0.2,0-0.3-0.1-0.5-0.3c-0.1-0.1-0.2-0.3-0.3-0.5c0-0.2,0-0.4,0.1-0.7c0.1-0.2,0.2-0.4,0.4-0.6
				s0.4-0.4,0.7-0.5c0.2-0.1,0.5-0.1,0.7-0.1s0.4,0.2,0.6,0.3l-0.3,0.4c-0.2-0.2-0.4-0.2-0.6-0.2c-0.2,0-0.4,0.1-0.6,0.4
				c-0.2,0.2-0.4,0.4-0.4,0.6s0,0.3,0.1,0.5c0.1,0.1,0.2,0.2,0.4,0.1c0.1,0,0.4-0.1,0.8-0.4c0.4-0.2,0.7-0.4,0.8-0.5
				c0.2-0.1,0.5-0.1,0.7-0.1s0.4,0.1,0.5,0.3c0.2,0.2,0.3,0.3,0.3,0.6c0,0.2,0,0.5-0.1,0.7s-0.2,0.5-0.4,0.7
				c-0.3,0.3-0.5,0.4-0.8,0.5s-0.5,0.1-0.8,0.1C209.5,68.9,209.2,68.7,209,68.6 M208,71l-1-1.4l-2.7-0.9l0.5-0.4l1.4,0.5
				c0.3,0.1,0.5,0.2,0.7,0.3c0-0.2-0.1-0.5-0.1-0.9l-0.1-1.4l0.5-0.4l0.1,2.9l1,1.4L208,71z M202.9,72.4l0.4-0.3
				c0.1,0.2,0.2,0.3,0.4,0.4c0.1,0.1,0.3,0.1,0.5,0.1s0.4-0.1,0.6-0.2c0.2-0.1,0.3-0.2,0.4-0.3c0.1-0.1,0.2-0.3,0.2-0.4
				s0-0.3-0.1-0.4s-0.1-0.2-0.3-0.2c-0.1-0.1-0.3-0.1-0.4,0c-0.1,0-0.4,0.1-0.7,0.2c-0.4,0.1-0.6,0.1-0.8,0.1s-0.4,0-0.6-0.1
				c-0.2-0.1-0.3-0.2-0.4-0.4c-0.1-0.2-0.1-0.4-0.1-0.6s0.1-0.4,0.3-0.6s0.4-0.3,0.6-0.5c0.3-0.1,0.5-0.2,0.8-0.2
				c0.2,0,0.5,0,0.7,0.1s0.4,0.3,0.5,0.5l-0.4,0.3c-0.1-0.2-0.3-0.3-0.5-0.4c-0.2,0-0.4,0-0.7,0.2s-0.5,0.3-0.5,0.5
				c-0.1,0.2-0.1,0.3,0,0.5c0.1,0.1,0.2,0.2,0.3,0.2s0.4,0,0.8-0.1c0.4-0.1,0.7-0.2,0.9-0.2c0.3,0,0.5,0,0.7,0.1s0.3,0.2,0.4,0.4
				c0.1,0.2,0.1,0.4,0.1,0.6s-0.1,0.4-0.3,0.7c-0.2,0.2-0.4,0.4-0.6,0.5c-0.3,0.2-0.6,0.3-0.9,0.3c-0.3,0-0.5,0-0.7-0.2
				C203.2,72.8,203.1,72.6,202.9,72.4 M196.2,75.6l-0.6-3.6l-1.3,0.2l-0.1-0.5l3.2-0.5l0.1,0.5l-1.3,0.2l0.6,3.6L196.2,75.6z
				 M191.1,75.9l-0.1-4.1h0.5l2.2,3.2l-0.1-3.2h0.5l0.1,4.1h-0.5l-2.2-3.2l0.1,3.2H191.1z M187.4,75.5l0.5-4.1l2.9,0.4l-0.1,0.5
				l-2.4-0.3l-0.2,1.3l2.2,0.3l-0.1,0.5l-2.2-0.3l-0.2,1.4l2.5,0.3l-0.1,0.5L187.4,75.5z M182.8,74.3l1-4l0.8,0.2l0.2,3.1
				c0,0.3,0,0.5,0,0.6c0.1-0.1,0.2-0.3,0.4-0.6l1.7-2.5l0.7,0.2l-1,4l-0.5-0.1l0.9-3.3l-2,3l-0.5-0.1l-0.2-3.7l-0.9,3.4L182.8,74.3z
				 M179.1,72.6l1.8-3.7l2.6,1.3l-0.2,0.4l-2.2-1.1l-0.5,1.1l2,1l-0.2,0.4l-2-1l-0.6,1.3l2.2,1.1l-0.2,0.4L179.1,72.6z M177.9,69.9
				l0.3-0.4l1.4,1l-0.8,1.3c-0.3,0-0.7,0-0.9-0.1c-0.3-0.1-0.6-0.2-0.8-0.4c-0.3-0.2-0.6-0.5-0.8-0.8s-0.2-0.7-0.2-1
				c0-0.4,0.2-0.7,0.4-1.1c0.2-0.3,0.5-0.6,0.8-0.8c0.3-0.2,0.7-0.3,1-0.2c0.3,0,0.7,0.2,1,0.4c0.2,0.2,0.4,0.4,0.6,0.6
				c0.1,0.2,0.2,0.4,0.2,0.6s0,0.5-0.1,0.7l-0.5-0.2c0.1-0.2,0.1-0.4,0.1-0.5c0-0.2-0.1-0.3-0.2-0.5c-0.1-0.2-0.2-0.3-0.4-0.4
				s-0.4-0.2-0.6-0.3c-0.2,0-0.4,0-0.5,0c-0.2,0-0.3,0.1-0.4,0.2c-0.2,0.2-0.4,0.4-0.6,0.6c-0.2,0.3-0.3,0.6-0.4,0.9
				c0,0.3,0,0.5,0.1,0.8c0.1,0.2,0.3,0.4,0.5,0.6c0.2,0.1,0.4,0.2,0.6,0.3c0.2,0.1,0.4,0.1,0.6,0l0.4-0.6L177.9,69.9z M174.2,66.8
				l1,0.9l0.4-1.1c0.1-0.3,0.2-0.6,0.3-0.8c-0.2,0.2-0.4,0.3-0.7,0.4L174.2,66.8z M172.2,67.3l3.9-2l0.4,0.4l-1.5,4.2l-0.5-0.4
				l0.5-1.2l-1.3-1.2l-1.2,0.6L172.2,67.3z M170,64.4l3.2-2.5l0.3,0.4l-1.2,3.7l2.5-2l0.3,0.4l-3.2,2.5l-0.3-0.4l1.2-3.7l-2.5,2
				L170,64.4z M169.9,60.9l0.7,1.2l0.8-0.9c0.2-0.3,0.4-0.5,0.6-0.7c-0.3,0.1-0.5,0.1-0.8,0.2L169.9,60.9z M167.9,60.6l4.3-0.6
				l0.3,0.5l-2.7,3.5l-0.3-0.5l0.8-1l-0.8-1.5l-1.3,0.2L167.9,60.6z M166.4,56.6l3.8-1.4l0.3,0.8l-2.4,1.9c-0.2,0.2-0.4,0.3-0.5,0.4
				c0.2,0,0.4,0,0.7,0l3-0.1l0.2,0.7l-3.8,1.4l-0.2-0.5l3.2-1.2l-3.6,0.1l-0.2-0.5l2.8-2.3l-3.2,1.2L166.4,56.6z"/>
		</g>
		<g>
			<defs>
				<rect id="SVGID_00000142166431112974377160000012881090412486396056_" x="151.9" y="5.8" width="80.7" height="81.8"/>
			</defs>
			<clipPath id="SVGID_00000160898732415961588300000012676229911985230487_">
				<use xlink:href="#SVGID_00000142166431112974377160000012881090412486396056_"  style="overflow:visible;"/>
			</clipPath>
			
				<rect x="172.7" y="39.4" style="clip-path:url(#SVGID_00000160898732415961588300000012676229911985230487_);fill-rule:evenodd;clip-rule:evenodd;fill:#004F85;" width="39.1" height="1.4"/>
		</g>
		<g>
			<defs>
				<rect id="SVGID_00000117649018144231341890000000531180104223588774_" x="151.9" y="5.8" width="80.7" height="81.8"/>
			</defs>
			<clipPath id="SVGID_00000082361706629140579840000008682565738115857321_">
				<use xlink:href="#SVGID_00000117649018144231341890000000531180104223588774_"  style="overflow:visible;"/>
			</clipPath>
			
				<rect x="172.8" y="53.7" style="clip-path:url(#SVGID_00000082361706629140579840000008682565738115857321_);fill-rule:evenodd;clip-rule:evenodd;fill:#9B9B9A;" width="39" height="1"/>
		</g>
		<g>
			<defs>
				<rect id="SVGID_00000049211251857149532010000012619230012949581235_" x="151.9" y="5.8" width="80.7" height="81.8"/>
			</defs>
			<clipPath id="SVGID_00000175304204957954688320000014139631380313719700_">
				<use xlink:href="#SVGID_00000049211251857149532010000012619230012949581235_"  style="overflow:visible;"/>
			</clipPath>
			
				<rect x="175.4" y="42.8" style="clip-path:url(#SVGID_00000175304204957954688320000014139631380313719700_);fill-rule:evenodd;clip-rule:evenodd;fill:#9B9B9A;" width="1.9" height="8.5"/>
		</g>
		<g>
			<defs>
				<rect id="SVGID_00000163795005059338248210000014365696247543428025_" x="151.9" y="5.8" width="80.7" height="81.8"/>
			</defs>
			<clipPath id="SVGID_00000017474182463780467760000007900518809826638486_">
				<use xlink:href="#SVGID_00000163795005059338248210000014365696247543428025_"  style="overflow:visible;"/>
			</clipPath>
			
				<path style="clip-path:url(#SVGID_00000017474182463780467760000007900518809826638486_);fill-rule:evenodd;clip-rule:evenodd;fill:#9B9B9A;" d="
				M188.8,42.8h1.9l4.4,5v-5h2v8.5h-1.7c-0.2-0.2-0.5-0.5-0.9-1s-0.8-0.9-1.2-1.4s-0.9-1-1.5-1.8c-0.6-0.7-0.9-1.1-0.9-1.1v5.2h-2
				v-8.4H188.8z"/>
		</g>
		<g>
			<defs>
				<rect id="SVGID_00000092452348664700187710000010940431114319585690_" x="151.9" y="5.8" width="80.7" height="81.8"/>
			</defs>
			<clipPath id="SVGID_00000015345321792769916650000014816440472377997446_">
				<use xlink:href="#SVGID_00000092452348664700187710000010940431114319585690_"  style="overflow:visible;"/>
			</clipPath>
			
				<path style="clip-path:url(#SVGID_00000015345321792769916650000014816440472377997446_);fill-rule:evenodd;clip-rule:evenodd;fill:#9B9B9A;" d="
				M207,42.7h0.3v2h2.2v1.4h-2.2v2.2c0,0.3,0,0.5,0.1,0.7c0,0.2,0.1,0.4,0.3,0.5c0.1,0.1,0.3,0.2,0.6,0.2c0.2,0,0.4,0,0.5-0.1
				c0.1,0,0.4-0.1,0.8-0.3v1.5c-0.2,0.1-0.4,0.1-0.6,0.2c-0.2,0.1-0.3,0.1-0.5,0.1s-0.4,0.1-0.6,0.1c-0.8,0-1.4-0.2-1.8-0.7
				c-0.4-0.4-0.6-1.1-0.6-1.9V46h-0.9v-0.4L207,42.7z"/>
		</g>
		<g>
			<defs>
				<rect id="SVGID_00000092448849157977672910000007193161795762571949_" x="151.9" y="5.8" width="80.7" height="81.8"/>
			</defs>
			<clipPath id="SVGID_00000149357590271126893360000012531737927409952915_">
				<use xlink:href="#SVGID_00000092448849157977672910000007193161795762571949_"  style="overflow:visible;"/>
			</clipPath>
			
				<path style="clip-path:url(#SVGID_00000149357590271126893360000012531737927409952915_);fill-rule:evenodd;clip-rule:evenodd;fill:#9B9B9A;" d="
				M201.2,45.8c-0.4,0-0.7,0.1-0.9,0.4c-0.3,0.3-0.4,0.6-0.4,1h2.8c0-0.4-0.2-0.7-0.4-1C201.9,45.9,201.6,45.8,201.2,45.8
				 M201.1,44.5c0.6,0,1.2,0.1,1.6,0.3c0.4,0.2,0.8,0.5,1,0.9s0.4,0.8,0.5,1.2s0.1,0.8,0.1,1.3h-4.5c0.1,0.6,0.3,1,0.6,1.3
				c0.4,0.3,0.8,0.4,1.5,0.4c0.8,0,1.6-0.3,2.3-0.9v1.3c-0.8,0.6-1.8,0.9-3,0.9c-0.7,0-1.3-0.1-1.8-0.4c-0.5-0.3-0.9-0.7-1.2-1.2
				s-0.4-1.1-0.4-1.8s0.1-1.3,0.4-1.8c0.3-0.5,0.7-0.9,1.2-1.2C199.9,44.7,200.5,44.5,201.1,44.5"/>
		</g>
		<g>
			<defs>
				<rect id="SVGID_00000076602078997334247710000009296014001787432639_" x="151.9" y="5.8" width="80.7" height="81.8"/>
			</defs>
			<clipPath id="SVGID_00000163030308926324884260000010610864140558672313_">
				<use xlink:href="#SVGID_00000076602078997334247710000009296014001787432639_"  style="overflow:visible;"/>
			</clipPath>
			
				<polygon style="clip-path:url(#SVGID_00000163030308926324884260000010610864140558672313_);fill-rule:evenodd;clip-rule:evenodd;fill:#004F85;" points="
				186.8,46.1 187.1,46.7 187.7,46.7 187.2,47.1 187.4,47.8 186.8,47.4 186.2,47.8 186.5,47.1 185.9,46.7 186.6,46.7 			"/>
		</g>
		<g>
			<defs>
				<rect id="SVGID_00000096058044530120578070000011819854553281829567_" x="151.9" y="5.8" width="80.7" height="81.8"/>
			</defs>
			<clipPath id="SVGID_00000155868307607778735220000001803867410521690283_">
				<use xlink:href="#SVGID_00000096058044530120578070000011819854553281829567_"  style="overflow:visible;"/>
			</clipPath>
			
				<polygon style="clip-path:url(#SVGID_00000155868307607778735220000001803867410521690283_);fill-rule:evenodd;clip-rule:evenodd;fill:#004F85;" points="
				186.4,47.9 186.6,48.6 187.2,48.6 186.7,49 186.9,49.6 186.4,49.2 185.8,49.6 186,49 185.5,48.6 186.1,48.6 			"/>
		</g>
		<g>
			<defs>
				<rect id="SVGID_00000018207562468078384690000017206738756729361300_" x="151.9" y="5.8" width="80.7" height="81.8"/>
			</defs>
			<clipPath id="SVGID_00000103947945010863209570000010429046223268789415_">
				<use xlink:href="#SVGID_00000018207562468078384690000017206738756729361300_"  style="overflow:visible;"/>
			</clipPath>
			
				<polygon style="clip-path:url(#SVGID_00000103947945010863209570000010429046223268789415_);fill-rule:evenodd;clip-rule:evenodd;fill:#004F85;" points="
				184.9,49.4 185.2,50 185.8,50 185.3,50.4 185.5,51.1 184.9,50.7 184.4,51.1 184.6,50.4 184.1,50 184.7,50 			"/>
		</g>
		<g>
			<defs>
				<rect id="SVGID_00000134231423963664144780000002494264154455652525_" x="151.9" y="5.8" width="80.7" height="81.8"/>
			</defs>
			<clipPath id="SVGID_00000101815908528288823840000011255104973436451508_">
				<use xlink:href="#SVGID_00000134231423963664144780000002494264154455652525_"  style="overflow:visible;"/>
			</clipPath>
			
				<polygon style="clip-path:url(#SVGID_00000101815908528288823840000011255104973436451508_);fill-rule:evenodd;clip-rule:evenodd;fill:#004F85;" points="
				183.7,47.6 183.9,48.3 184.5,48.3 184,48.7 184.2,49.3 183.7,48.9 183.1,49.3 183.3,48.7 182.8,48.3 183.4,48.3 			"/>
		</g>
		<g>
			<defs>
				<rect id="SVGID_00000002362498108762412170000013522241387652616599_" x="151.9" y="5.8" width="80.7" height="81.8"/>
			</defs>
			<clipPath id="SVGID_00000148650909516506871800000003625382869361546919_">
				<use xlink:href="#SVGID_00000002362498108762412170000013522241387652616599_"  style="overflow:visible;"/>
			</clipPath>
			
				<polygon style="clip-path:url(#SVGID_00000148650909516506871800000003625382869361546919_);fill-rule:evenodd;clip-rule:evenodd;fill:#004F85;" points="
				186.1,51 186.3,51.7 187,51.7 186.5,52.1 186.6,52.7 186.1,52.3 185.5,52.7 185.7,52.1 185.2,51.7 185.8,51.7 			"/>
		</g>
		<g>
			<defs>
				<rect id="SVGID_00000183227284123493807260000001186129066899906223_" x="151.9" y="5.8" width="80.7" height="81.8"/>
			</defs>
			<clipPath id="SVGID_00000121237288767955838890000008116603256464032703_">
				<use xlink:href="#SVGID_00000183227284123493807260000001186129066899906223_"  style="overflow:visible;"/>
			</clipPath>
			
				<polygon style="clip-path:url(#SVGID_00000121237288767955838890000008116603256464032703_);fill-rule:evenodd;clip-rule:evenodd;fill:#004F85;" points="
				182.9,50 183.1,50.7 183.8,50.7 183.3,51.1 183.5,51.7 182.9,51.4 182.3,51.7 182.5,51.1 182,50.7 182.7,50.7 			"/>
		</g>
		<g>
			<defs>
				<rect id="SVGID_00000083774536207095980010000012193202878738378170_" x="151.9" y="5.8" width="80.7" height="81.8"/>
			</defs>
			<clipPath id="SVGID_00000094616747299619754760000003575067278408328121_">
				<use xlink:href="#SVGID_00000083774536207095980010000012193202878738378170_"  style="overflow:visible;"/>
			</clipPath>
			
				<polygon style="clip-path:url(#SVGID_00000094616747299619754760000003575067278408328121_);fill-rule:evenodd;clip-rule:evenodd;fill:#004F85;" points="
				181,49.4 181.2,50.1 181.9,50.1 181.4,50.5 181.6,51.1 181,50.7 180.4,51.1 180.7,50.5 180.2,50.1 180.8,50.1 			"/>
		</g>
		<g>
			<defs>
				<rect id="SVGID_00000005258278454976403890000000158319467367680923_" x="151.9" y="5.8" width="80.7" height="81.8"/>
			</defs>
			<clipPath id="SVGID_00000034774117480678578380000000689682363581369480_">
				<use xlink:href="#SVGID_00000005258278454976403890000000158319467367680923_"  style="overflow:visible;"/>
			</clipPath>
			
				<polygon style="clip-path:url(#SVGID_00000034774117480678578380000000689682363581369480_);fill-rule:evenodd;clip-rule:evenodd;fill:#004F85;" points="
				179.6,48 179.9,48.6 180.5,48.6 180,49 180.2,49.7 179.6,49.3 179.1,49.7 179.2,49 178.7,48.6 179.4,48.6 			"/>
		</g>
		<g>
			<defs>
				<rect id="SVGID_00000158030756306370181730000014050020517100959363_" x="151.9" y="5.8" width="80.7" height="81.8"/>
			</defs>
			<clipPath id="SVGID_00000007415360415614253760000010547471694469703592_">
				<use xlink:href="#SVGID_00000158030756306370181730000014050020517100959363_"  style="overflow:visible;"/>
			</clipPath>
			
				<polygon style="clip-path:url(#SVGID_00000007415360415614253760000010547471694469703592_);fill-rule:evenodd;clip-rule:evenodd;fill:#004F85;" points="
				179.2,46 179.4,46.7 180,46.7 179.5,47.1 179.7,47.7 179.2,47.4 178.6,47.7 178.8,47.1 178.3,46.7 178.9,46.7 			"/>
		</g>
		<g>
			<defs>
				<rect id="SVGID_00000161631159590881788810000012383499420922598065_" x="151.9" y="5.8" width="80.7" height="81.8"/>
			</defs>
			<clipPath id="SVGID_00000183226214781866339470000009783138186573193861_">
				<use xlink:href="#SVGID_00000161631159590881788810000012383499420922598065_"  style="overflow:visible;"/>
			</clipPath>
			
				<polygon style="clip-path:url(#SVGID_00000183226214781866339470000009783138186573193861_);fill-rule:evenodd;clip-rule:evenodd;fill:#004F85;" points="
				179.7,44.1 179.9,44.8 180.6,44.8 180.1,45.2 180.3,45.8 179.7,45.4 179.1,45.8 179.3,45.2 178.8,44.8 179.5,44.8 			"/>
		</g>
		<g>
			<defs>
				<rect id="SVGID_00000018199340155313921320000007719705602548168331_" x="151.9" y="5.8" width="80.7" height="81.8"/>
			</defs>
			<clipPath id="SVGID_00000182486158071470957710000009161308748956045961_">
				<use xlink:href="#SVGID_00000018199340155313921320000007719705602548168331_"  style="overflow:visible;"/>
			</clipPath>
			
				<polygon style="clip-path:url(#SVGID_00000182486158071470957710000009161308748956045961_);fill-rule:evenodd;clip-rule:evenodd;fill:#004F85;" points="
				181,42.7 181.3,43.3 181.9,43.3 181.4,43.7 181.6,44.3 181,44 180.5,44.3 180.6,43.7 180.1,43.3 180.8,43.3 			"/>
		</g>
		<g>
			<defs>
				<rect id="SVGID_00000062181013042898600300000009226269329696194453_" x="151.9" y="5.8" width="80.7" height="81.8"/>
			</defs>
			<clipPath id="SVGID_00000045618087614783974320000001262019479958571139_">
				<use xlink:href="#SVGID_00000062181013042898600300000009226269329696194453_"  style="overflow:visible;"/>
			</clipPath>
			
				<polygon style="clip-path:url(#SVGID_00000045618087614783974320000001262019479958571139_);fill-rule:evenodd;clip-rule:evenodd;fill:#004F85;" points="
				183,42.2 183.2,42.8 183.9,42.8 183.4,43.3 183.6,43.9 183,43.5 182.4,43.9 182.6,43.3 182.1,42.8 182.7,42.8 			"/>
		</g>
		<g>
			<defs>
				<rect id="SVGID_00000098913827086556314150000016847165450152892294_" x="151.9" y="5.8" width="80.7" height="81.8"/>
			</defs>
			<clipPath id="SVGID_00000152957343238971707380000000948056328513197215_">
				<use xlink:href="#SVGID_00000098913827086556314150000016847165450152892294_"  style="overflow:visible;"/>
			</clipPath>
			
				<polygon style="clip-path:url(#SVGID_00000152957343238971707380000000948056328513197215_);fill-rule:evenodd;clip-rule:evenodd;fill:#004F85;" points="
				185,42.6 185.3,43.3 185.9,43.3 185.4,43.7 185.6,44.3 185,43.9 184.5,44.3 184.7,43.7 184.2,43.3 184.8,43.3 			"/>
		</g>
		<g>
			<defs>
				<rect id="SVGID_00000096761397630355307300000006408623999346639039_" x="151.9" y="5.8" width="80.7" height="81.8"/>
			</defs>
			<clipPath id="SVGID_00000006691826742449006600000016127734133892322178_">
				<use xlink:href="#SVGID_00000096761397630355307300000006408623999346639039_"  style="overflow:visible;"/>
			</clipPath>
			
				<polygon style="clip-path:url(#SVGID_00000006691826742449006600000016127734133892322178_);fill-rule:evenodd;clip-rule:evenodd;fill:#004F85;" points="
				186.2,44.1 186.5,44.8 187.1,44.8 186.6,45.2 186.8,45.8 186.2,45.4 185.7,45.8 185.8,45.2 185.3,44.8 186,44.8 			"/>
		</g>
	</g>
	<g>
		<path class="st26" d="M11.1,93C5.4,93,0.7,88.3,0.7,82.4V11.8C0.7,6,5.4,1.3,11.1,1.3h40.8c5.7,0,10.4,4.7,10.4,10.5v70.7
			c0,5.8-4.7,10.5-10.4,10.5H11.1z M3.7,82.4c0,4.2,3.3,7.6,7.4,7.6h40.8c4.1,0,7.4-3.4,7.4-7.6V58.2c-8.4,5-18,7.7-27.8,7.7
			c-9.9,0-19.5-2.7-27.9-7.8L3.7,82.4L3.7,82.4z"/>
		<path class="st27" d="M51.9,2c5.3,0,9.6,4.4,9.6,9.8v70.7c0,5.4-4.3,9.8-9.6,9.8H11.1c-5.3,0-9.6-4.4-9.6-9.8V11.8
			C1.5,6.3,5.8,2,11.1,2H51.9 M11.1,90.8h40.8c4.5,0,8.2-3.7,8.2-8.3V56.9c-8.3,5.3-18.1,8.3-28.6,8.3s-20.3-3.1-28.6-8.3v25.6
			C2.9,87,6.6,90.8,11.1,90.8 M51.9,0.5H11.1C5,0.5,0,5.5,0,11.8v70.7c0,6.2,5,11.3,11.1,11.3h40.8c6.1,0,11.1-5,11.1-11.3V11.8
			C63,5.5,58,0.5,51.9,0.5L51.9,0.5z M11.1,89.3c-3.7,0-6.7-3.1-6.7-6.8v-23c8.3,4.7,17.6,7.2,27.2,7.2c9.5,0,18.8-2.5,27.1-7.2
			v22.9c0,3.8-3,6.8-6.7,6.8H11.1V89.3z"/>
	</g>
	<path class="st27" d="M60.1,56.9v25.5c0,4.6-3.7,8.3-8.2,8.3H11.1c-4.5,0-8.2-3.7-8.2-8.3V56.9c8.3,5.3,18.1,8.3,28.6,8.3
		C42,65.2,51.8,62.2,60.1,56.9z"/>
	<g>
		<path class="st26" d="M12.8,80.1v-7h1.3v7H12.8z"/>
		<path class="st26" d="M15.5,79.7l0.3-1.1c0.2,0.1,0.5,0.2,0.8,0.3c0.3,0.1,0.6,0.1,0.9,0.1c0.4,0,0.7-0.1,0.9-0.2
			c0.2-0.1,0.3-0.3,0.3-0.6c0-0.2-0.1-0.3-0.2-0.5c-0.2-0.1-0.4-0.3-0.8-0.5L17.4,77c-0.5-0.3-0.8-0.5-1.1-0.7
			c-0.3-0.2-0.5-0.4-0.7-0.7c-0.2-0.3-0.3-0.6-0.3-0.9c0-0.4,0.1-0.7,0.3-1s0.5-0.5,0.8-0.7c0.4-0.2,0.8-0.2,1.3-0.2
			c0.6,0,1.2,0.2,1.9,0.5l-0.4,1.1c-0.3-0.1-0.5-0.2-0.8-0.3C18.2,74,17.9,74,17.7,74c-0.3,0-0.6,0.1-0.7,0.2
			c-0.2,0.1-0.3,0.3-0.3,0.5s0.1,0.4,0.2,0.5c0.2,0.1,0.4,0.3,0.7,0.5L18,76l0.3,0.2c0.4,0.2,0.7,0.4,1,0.6c0.2,0.2,0.4,0.4,0.6,0.6
			c0.2,0.3,0.2,0.5,0.2,0.9s-0.1,0.7-0.3,1c-0.2,0.3-0.5,0.5-0.9,0.7s-0.9,0.2-1.4,0.2c-0.3,0-0.6-0.1-1.1-0.2
			C16,79.9,15.7,79.8,15.5,79.7z"/>
		<path class="st26" d="M24,73c0.7,0,1.3,0.2,1.8,0.5s0.9,0.8,1.2,1.3c0.3,0.5,0.4,1.2,0.4,1.8c0,0.7-0.1,1.3-0.4,1.9
			s-0.7,1-1.2,1.3s-1.1,0.5-1.8,0.5c-0.7,0-1.3-0.2-1.8-0.5S21.3,79,21,78.5c-0.3-0.5-0.4-1.2-0.4-1.8c0-0.7,0.1-1.3,0.4-1.9
			s0.7-1,1.2-1.3C22.8,73.1,23.4,73,24,73z M22,76.6c0,0.5,0.1,0.9,0.2,1.3c0.2,0.4,0.4,0.7,0.7,0.9c0.3,0.2,0.7,0.3,1.1,0.3
			s0.7-0.1,1-0.3c0.3-0.2,0.5-0.5,0.7-0.9S26,77,26,76.5s-0.1-0.9-0.2-1.3c-0.2-0.4-0.4-0.7-0.7-0.9C24.8,74.1,24.4,74,24,74
			s-0.7,0.1-1,0.3c-0.3,0.2-0.6,0.5-0.7,0.9C22.1,75.7,22,76.1,22,76.6z"/>
		<path class="st26" d="M33.9,74.5c0.4,0.2,0.7,0.5,0.9,0.9s0.3,0.9,0.3,1.5c0,0.8-0.2,1.4-0.6,2c-0.4,0.6-0.9,1-1.5,1.3
			s-1.2,0.5-1.8,0.6L31,79.7c1.3-0.3,2.1-0.9,2.6-1.5c-0.3,0.2-0.7,0.2-1,0.2c-0.4,0-0.8-0.1-1.1-0.3c-0.3-0.2-0.6-0.4-0.8-0.8
			c-0.2-0.3-0.3-0.7-0.3-1.1s0.1-0.8,0.3-1.1c0.2-0.3,0.4-0.6,0.8-0.8c0.3-0.2,0.7-0.3,1.1-0.3C33,74.2,33.5,74.3,33.9,74.5z
			 M31.8,77.1c0.2,0.2,0.5,0.3,0.8,0.3c0.5,0,1-0.1,1.3-0.4c0-0.6-0.1-1-0.4-1.3c-0.2-0.3-0.6-0.4-1-0.4c-0.3,0-0.5,0.1-0.7,0.3
			c-0.2,0.2-0.3,0.4-0.3,0.7C31.5,76.6,31.6,76.8,31.8,77.1z"/>
		<path class="st26" d="M35.6,77.2c0-0.6,0.1-1.1,0.4-1.6c0.2-0.5,0.6-0.8,1-1.1c0.4-0.3,0.9-0.4,1.5-0.4c0.5,0,1,0.1,1.4,0.4
			s0.8,0.6,1,1.1s0.4,1,0.4,1.5c0,0.6-0.1,1.1-0.4,1.6c-0.2,0.5-0.6,0.8-1,1.1c-0.4,0.3-0.9,0.4-1.4,0.4s-1-0.1-1.4-0.4
			s-0.8-0.6-1-1.1C35.7,78.3,35.6,77.8,35.6,77.2z M36.8,77.2c0,0.4,0.1,0.7,0.2,1c0.1,0.3,0.3,0.5,0.6,0.7c0.2,0.2,0.5,0.3,0.8,0.3
			s0.6-0.1,0.8-0.2c0.2-0.2,0.4-0.4,0.6-0.7c0.1-0.3,0.2-0.6,0.2-1s-0.1-0.7-0.2-1c-0.1-0.3-0.3-0.5-0.6-0.7
			c-0.2-0.2-0.5-0.2-0.8-0.2s-0.6,0.1-0.8,0.2c-0.2,0.2-0.4,0.4-0.6,0.7C36.9,76.5,36.8,76.8,36.8,77.2z"/>
		<path class="st26" d="M41.8,77.2c0-0.6,0.1-1.1,0.4-1.6c0.2-0.5,0.6-0.8,1-1.1c0.4-0.3,0.9-0.4,1.5-0.4c0.5,0,1,0.1,1.4,0.4
			s0.8,0.6,1,1.1s0.4,1,0.4,1.5c0,0.6-0.1,1.1-0.4,1.6c-0.2,0.5-0.6,0.8-1,1.1c-0.4,0.3-0.9,0.4-1.4,0.4s-1-0.1-1.4-0.4
			s-0.8-0.6-1-1.1C41.9,78.3,41.8,77.8,41.8,77.2z M43,77.2c0,0.4,0.1,0.7,0.2,1c0.1,0.3,0.3,0.5,0.6,0.7c0.2,0.2,0.5,0.3,0.8,0.3
			s0.6-0.1,0.8-0.2c0.2-0.2,0.4-0.4,0.6-0.7c0.1-0.3,0.2-0.6,0.2-1s-0.1-0.7-0.2-1c-0.1-0.3-0.3-0.5-0.6-0.7
			c-0.2-0.2-0.5-0.2-0.8-0.2s-0.6,0.1-0.8,0.2c-0.2,0.2-0.4,0.4-0.6,0.7C43,76.5,43,76.8,43,77.2z"/>
		<path class="st26" d="M49.4,80.1v-4.3l-1.2,0.5l-0.5-1l2.1-0.9h0.9v5.8L49.4,80.1L49.4,80.1z"/>
	</g>
	<g>
		<g>
			<g>
				<g>
					<path class="st27" d="M31.5,29.4c-2.6,0-4.6-2.1-4.6-4.7S29,20,31.5,20c2.6,0,4.6,2.1,4.6,4.7C36.2,27.3,34.1,29.4,31.5,29.4
						 M31.5,21.7c-1.6,0-2.9,1.3-2.9,3c0,1.6,1.3,3,2.9,3c1.6,0,2.9-1.3,2.9-3S33.1,21.7,31.5,21.7"/>
					<path class="st27" d="M23,32.1c-1.7-2-2.7-4.6-2.7-7.4c0-2.3,0.7-4.4,1.8-6.1l-1.4-1.1c-1.3,2.1-2.1,4.5-2.1,7.2
						c0,3.3,1.2,6.3,3.2,8.7L23,32.1z"/>
					<path class="st27" d="M21.8,16l1.2,1.2c0.4-0.4,0.8-0.9,1.2-1.2L23,14.8C22.6,15.2,22.2,15.6,21.8,16"/>
					<path class="st27" d="M31.6,11.5c-2.6,0-5.1,0.8-7.1,2.2l1,1.4c1.8-1.1,3.8-1.8,6.1-1.8c2.9,0,5.7,1.1,7.7,3.1l1.5-0.9
						C38.4,12.9,35.1,11.5,31.6,11.5"/>
					<path class="st27" d="M36.7,29.6c-1.3,1.4-3.1,2.3-5.2,2.3c-3.9,0-7.1-3.2-7.1-7.2s3.2-7.2,7.1-7.2c1.4,0,2.8,0.4,4,1.3l1.6-1
						c-1.5-1.3-3.5-2-5.5-2c-4.8,0-8.8,4-8.8,8.9s3.9,8.9,8.8,8.9c2.6,0,5-1.2,6.6-3L36.7,29.6z"/>
					<path class="st27" d="M37.8,34.2c-1.8,1.2-3.9,1.9-6.3,1.9c-2.8,0-5.3-1-7.3-2.8L23,34.6c2.3,2,5.3,3.3,8.5,3.3
						c2.7,0,5.2-0.9,7.3-2.3L37.8,34.2z"/>
					<path class="st27" d="M41.9,16.8l-5,3.2c0,0,1.7,2,1.7,4.8c0,1.3-0.3,2.4-0.9,3.5l1.4,1c0.8-1.3,1.2-2.9,1.2-4.5
						c0-1.5-0.4-2.9-1-4.2l2.1-1.3c0.9,1.7,1.4,3.6,1.4,5.5c0,3.3-1.4,6.3-3.6,8.4l1.1,1.4c2.6-2.4,4.3-5.9,4.3-9.8
						C44.5,20,41.9,16.8,41.9,16.8"/>
				</g>
				<g>
					<path class="st27" d="M22.3,44.4c-2,0-3.6,1.6-3.6,3.7c0,2,1.6,3.7,3.6,3.7s3.6-1.6,3.6-3.7S24.3,44.4,22.3,44.4 M22.3,50.2
						c-1.2,0-2.1-1-2.1-2.2s1-2.2,2.1-2.2c1.2,0,2.1,1,2.1,2.2C24.4,49.3,23.5,50.2,22.3,50.2"/>
					<path class="st27" d="M10.1,51.5H8.6v-6.3h1.5V51.5z M9.4,44.4c-0.5,0-0.9-0.4-0.9-0.9s0.4-0.9,0.9-0.9s0.9,0.4,0.9,0.9
						C10.3,44,9.9,44.4,9.4,44.4"/>
					<path class="st27" d="M30.8,44.4c-2,0-3.6,1.6-3.6,3.7v3.5h1.6v-3.7c0-1.1,0.9-2.1,2-2.1s2,0.9,2,2v3.7h1.6V48
						C34.4,46,32.8,44.4,30.8,44.4"/>
					<path class="st27" d="M39.3,50.4L39.3,50.4c0,0-0.2,0-0.3,0c-0.7,0-1-0.2-1-1.1v-3.6h1.4v-1.2H38v-1.4h-1.6v1.4h-0.9v1.2h0.9
						v3.4c0,0.5,0,1.2,0.3,1.8s0.9,0.9,1.8,0.9c0.4,0,0.8-0.1,0.8-0.1V50.4z"/>
					<path class="st27" d="M15.2,51.8c-2,0-3.7-1.7-3.7-3.7s1.6-3.7,3.7-3.7c1.7,0,2.7,1.2,2.7,1.2l-1,1.2c0,0-0.6-0.8-1.7-0.8
						c-1.2,0-2.1,1-2.1,2.2s1,2.2,2.1,2.2s1.7-0.8,1.7-0.8l1,1.2C17.9,50.6,16.9,51.8,15.2,51.8"/>
					<path class="st27" d="M52,51.8c-2,0-3.7-1.7-3.7-3.7s1.6-3.7,3.7-3.7c1.7,0,2.7,1.2,2.7,1.2l-1,1.2c0,0-0.6-0.8-1.7-0.8
						c-1.2,0-2.1,1-2.1,2.2s1,2.2,2.1,2.2s1.7-0.8,1.7-0.8l1,1.2C54.6,50.6,53.7,51.8,52,51.8"/>
					<path class="st27" d="M43.8,44.3c-2.1,0-3.4,1.8-3.4,3.7c0,2.2,1.5,3.7,3.6,3.7s3-1.6,3-1.6l-1.1-0.8c0,0-0.6,1-1.9,1
						c-1.1,0-2-0.7-2.1-1.8h5.2c0,0,0-0.3,0-0.5C47.2,46.4,46.4,44.3,43.8,44.3 M42,47.3c0.1-0.9,0.9-1.6,1.8-1.6
						c1,0,1.7,0.6,1.7,1.6H42z"/>
				</g>
			</g>
		</g>
	</g>
	<g>
		<path class="st26" d="M91,92.5c-5.7,0-10.4-4.7-10.4-10.5V11.3c0-5.8,4.7-10.5,10.4-10.5h40.8c5.7,0,10.4,4.7,10.4,10.5V82
			c0,5.8-4.7,10.5-10.4,10.5H91z M83.5,82c0,4.2,3.3,7.6,7.4,7.6h40.8c4.1,0,7.4-3.4,7.4-7.6V57.7c-8.4,5-18,7.7-27.8,7.7
			c-9.9,0-19.5-2.7-27.9-7.8V82H83.5z"/>
		<path class="st27" d="M131.8,1.5c5.3,0,9.6,4.4,9.6,9.8V82c0,5.4-4.3,9.8-9.6,9.8H91c-5.3,0-9.6-4.4-9.6-9.8V11.3
			c0-5.4,4.3-9.8,9.6-9.8H131.8 M91,90.3h40.8c4.5,0,8.2-3.7,8.2-8.3V56.4c-8.3,5.3-18.1,8.3-28.6,8.3s-20.3-3.1-28.6-8.3V82
			C82.8,86.5,86.5,90.3,91,90.3 M131.8,0H91c-6.1,0-11.1,5.1-11.1,11.3V82c0,6.2,5,11.3,11.1,11.3h40.8c6.1,0,11.1-5,11.1-11.3V11.3
			C142.9,5.1,137.9,0,131.8,0L131.8,0z M91,88.8c-3.7,0-6.7-3.1-6.7-6.8V59c8.3,4.7,17.6,7.2,27.2,7.2c9.5,0,18.8-2.5,27.1-7.2v23
			c0,3.8-3,6.8-6.7,6.8H91L91,88.8z"/>
	</g>
	<path class="st27" d="M140,56.4V82c0,4.6-3.7,8.3-8.2,8.3H91c-4.5,0-8.2-3.7-8.2-8.3V56.4c8.3,5.3,18.1,8.3,28.6,8.3
		C121.9,64.7,131.7,61.7,140,56.4z"/>
	<g>
		<path class="st26" d="M90.6,79.6v-7h1.3v7H90.6z"/>
		<path class="st26" d="M93.3,79.2l0.3-1.1c0.2,0.1,0.5,0.2,0.9,0.3c0.3,0.1,0.6,0.1,0.9,0.1c0.4,0,0.7-0.1,0.9-0.2
			c0.2-0.1,0.3-0.3,0.3-0.6c0-0.2-0.1-0.3-0.2-0.5c-0.2-0.1-0.4-0.3-0.8-0.5l-0.3-0.2c-0.5-0.3-0.8-0.5-1.1-0.7
			c-0.3-0.2-0.5-0.4-0.7-0.7c-0.2-0.3-0.3-0.6-0.3-0.9c0-0.4,0.1-0.7,0.3-1c0.2-0.3,0.5-0.5,0.8-0.7c0.4-0.2,0.8-0.2,1.3-0.2
			c0.6,0,1.2,0.2,1.9,0.5L97,74.1c-0.3-0.1-0.5-0.2-0.8-0.3c-0.2-0.1-0.5-0.1-0.7-0.1c-0.3,0-0.6,0.1-0.7,0.2
			c-0.2,0.1-0.3,0.3-0.3,0.5s0.1,0.4,0.2,0.5c0.2,0.1,0.4,0.3,0.7,0.5l0.3,0.2l0.3,0.2c0.4,0.2,0.7,0.4,1,0.6
			c0.2,0.2,0.4,0.4,0.6,0.6c0.2,0.3,0.2,0.5,0.2,0.9s-0.1,0.7-0.3,1c-0.2,0.3-0.5,0.5-0.9,0.7s-0.9,0.2-1.4,0.2
			c-0.3,0-0.6-0.1-1.1-0.2C93.8,79.4,93.5,79.3,93.3,79.2z"/>
		<path class="st26" d="M101.9,72.5c0.7,0,1.3,0.2,1.8,0.5s0.9,0.8,1.2,1.3c0.3,0.5,0.4,1.2,0.4,1.8c0,0.7-0.1,1.3-0.4,1.9
			s-0.7,1-1.2,1.3s-1.1,0.5-1.8,0.5c-0.7,0-1.3-0.2-1.8-0.5s-0.9-0.8-1.2-1.3c-0.3-0.5-0.4-1.2-0.4-1.8c0-0.7,0.1-1.3,0.4-1.9
			s0.7-1,1.2-1.3S101.2,72.5,101.9,72.5z M99.9,76.2c0,0.5,0.1,0.9,0.2,1.3c0.2,0.4,0.4,0.7,0.7,0.9c0.3,0.2,0.7,0.3,1.1,0.3
			s0.7-0.1,1-0.3c0.3-0.2,0.6-0.5,0.7-0.9c0.2-0.4,0.3-0.9,0.3-1.4s-0.1-0.9-0.2-1.3c-0.2-0.4-0.4-0.7-0.7-0.9
			c-0.3-0.2-0.7-0.3-1.1-0.3s-0.7,0.1-1,0.3c-0.3,0.2-0.6,0.5-0.7,0.9C100,75.2,99.9,75.6,99.9,76.2z"/>
		<path class="st26" d="M109.6,79.6v-4.3l-1.2,0.5l-0.5-1l2.1-0.9h0.9v5.8L109.6,79.6L109.6,79.6z"/>
		<path class="st26" d="M116.9,79H116v1.3h-1.3V79h-2.8l-0.2-1.1l3.3-4.2h1v4.2h1.1L116.9,79z M113.1,77.9h1.6v-2L113.1,77.9z"/>
		<path class="st26" d="M117.5,76.7c0-0.6,0.1-1.1,0.4-1.6c0.2-0.5,0.6-0.8,1-1.1c0.4-0.3,0.9-0.4,1.5-0.4c0.5,0,1,0.1,1.4,0.4
			s0.8,0.6,1,1.1s0.4,1,0.4,1.5c0,0.6-0.1,1.1-0.4,1.6c-0.2,0.5-0.6,0.8-1,1.1c-0.4,0.3-0.9,0.4-1.4,0.4s-1-0.1-1.4-0.4
			s-0.8-0.6-1-1.1C117.6,77.8,117.5,77.3,117.5,76.7z M118.7,76.7c0,0.4,0.1,0.7,0.2,1s0.3,0.5,0.6,0.7c0.2,0.2,0.5,0.3,0.8,0.3
			s0.6-0.1,0.8-0.2c0.2-0.2,0.4-0.4,0.6-0.7c0.1-0.3,0.2-0.6,0.2-1s-0.1-0.7-0.2-1s-0.3-0.5-0.6-0.7c-0.2-0.2-0.5-0.2-0.8-0.2
			s-0.6,0.1-0.8,0.2c-0.2,0.2-0.4,0.4-0.6,0.7C118.8,76,118.7,76.3,118.7,76.7z"/>
		<path class="st26" d="M123.7,76.7c0-0.6,0.1-1.1,0.4-1.6c0.2-0.5,0.6-0.8,1-1.1c0.4-0.3,0.9-0.4,1.5-0.4c0.5,0,1,0.1,1.4,0.4
			c0.4,0.3,0.8,0.6,1,1.1s0.4,1,0.4,1.5c0,0.6-0.1,1.1-0.4,1.6c-0.2,0.5-0.6,0.8-1,1.1c-0.4,0.3-0.9,0.4-1.4,0.4s-1-0.1-1.4-0.4
			s-0.8-0.6-1-1.1C123.8,77.8,123.7,77.3,123.7,76.7z M124.9,76.7c0,0.4,0.1,0.7,0.2,1s0.3,0.5,0.6,0.7c0.2,0.2,0.5,0.3,0.8,0.3
			s0.6-0.1,0.8-0.2c0.2-0.2,0.4-0.4,0.6-0.7c0.1-0.3,0.2-0.6,0.2-1s-0.1-0.7-0.2-1c-0.1-0.3-0.3-0.5-0.6-0.7
			c-0.2-0.2-0.5-0.2-0.8-0.2s-0.6,0.1-0.8,0.2c-0.2,0.2-0.4,0.4-0.6,0.7C124.9,76,124.9,76.3,124.9,76.7z"/>
		<path class="st26" d="M131.3,79.6v-4.3l-1.2,0.5l-0.5-1l2.1-0.9h0.9v5.8L131.3,79.6L131.3,79.6z"/>
	</g>
	<g>
		<g>
			<g>
				<g>
					<path class="st27" d="M111.4,28.9c-2.6,0-4.6-2.1-4.6-4.7s2.1-4.7,4.6-4.7c2.6,0,4.6,2.1,4.6,4.7S113.9,28.9,111.4,28.9
						 M111.4,21.2c-1.6,0-2.9,1.3-2.9,3c0,1.6,1.3,3,2.9,3s2.9-1.3,2.9-3C114.3,22.6,113,21.2,111.4,21.2"/>
					<path class="st27" d="M102.9,31.6c-1.7-2-2.7-4.6-2.7-7.4c0-2.3,0.7-4.4,1.8-6.1l-1.4-1.1c-1.3,2.1-2.1,4.5-2.1,7.2
						c0,3.3,1.2,6.3,3.2,8.7L102.9,31.6z"/>
					<path class="st27" d="M101.7,15.5l1.2,1.2c0.4-0.4,0.8-0.9,1.2-1.2l-1.2-1.2C102.4,14.7,102,15.1,101.7,15.5"/>
					<path class="st27" d="M111.4,11c-2.6,0-5.1,0.8-7.1,2.2l1,1.4c1.8-1.1,3.8-1.8,6.1-1.8c2.9,0,5.7,1.1,7.7,3.1l1.5-0.9
						C118.2,12.4,114.9,11,111.4,11"/>
					<path class="st27" d="M116.6,29.1c-1.3,1.4-3.1,2.3-5.2,2.3c-3.9,0-7.1-3.2-7.1-7.2s3.2-7.2,7.1-7.2c1.4,0,2.8,0.4,4,1.3l1.6-1
						c-1.5-1.3-3.5-2-5.5-2c-4.8,0-8.8,4-8.8,8.9s3.9,8.9,8.8,8.9c2.6,0,5-1.2,6.6-3L116.6,29.1z"/>
					<path class="st27" d="M117.7,33.7c-1.8,1.2-3.9,1.9-6.3,1.9c-2.8,0-5.3-1-7.3-2.8l-1.2,1.2c2.3,2,5.3,3.3,8.5,3.3
						c2.7,0,5.2-0.9,7.3-2.3L117.7,33.7z"/>
					<path class="st27" d="M121.8,16.3l-5,3.2c0,0,1.7,2,1.7,4.8c0,1.3-0.3,2.4-0.9,3.5l1.4,1c0.8-1.3,1.2-2.9,1.2-4.5
						c0-1.5-0.4-2.9-1-4.2l2.1-1.3c0.9,1.7,1.4,3.6,1.4,5.5c0,3.3-1.4,6.3-3.6,8.4l1.1,1.4c2.6-2.4,4.3-5.9,4.3-9.8
						C124.4,19.5,121.8,16.3,121.8,16.3"/>
				</g>
				<g>
					<path class="st27" d="M102.2,43.9c-2,0-3.6,1.6-3.6,3.7c0,2,1.6,3.7,3.6,3.7s3.6-1.6,3.6-3.7C105.8,45.5,104.2,43.9,102.2,43.9
						 M102.2,49.7c-1.2,0-2.1-1-2.1-2.2s1-2.2,2.1-2.2c1.2,0,2.1,1,2.1,2.2C104.3,48.8,103.3,49.7,102.2,49.7"/>
					<path class="st27" d="M90,51h-1.5v-6.3H90V51z M89.2,43.9c-0.5,0-0.9-0.4-0.9-0.9s0.4-0.9,0.9-0.9s0.9,0.4,0.9,0.9
						C90.2,43.5,89.8,43.9,89.2,43.9"/>
					<path class="st27" d="M110.7,43.9c-2,0-3.6,1.6-3.6,3.7v3.5h1.6v-3.7c0-1.1,0.9-2.1,2-2.1s2,0.9,2,2V51h1.6v-3.5
						C114.3,45.5,112.7,43.9,110.7,43.9"/>
					<path class="st27" d="M119.2,49.9L119.2,49.9c0,0-0.2,0-0.3,0c-0.7,0-1-0.2-1-1.1v-3.6h1.4V44h-1.4v-1.4h-1.6V44h-0.9v1.2h0.9
						v3.4c0,0.5,0,1.2,0.3,1.8s0.9,0.9,1.8,0.9c0.4,0,0.8-0.1,0.8-0.1L119.2,49.9z"/>
					<path class="st27" d="M95.1,51.3c-2,0-3.7-1.7-3.7-3.7s1.6-3.7,3.7-3.7c1.7,0,2.7,1.2,2.7,1.2l-1,1.2c0,0-0.6-0.8-1.7-0.8
						c-1.2,0-2.1,1-2.1,2.2s1,2.2,2.1,2.2s1.7-0.8,1.7-0.8l1,1.2C97.7,50.1,96.8,51.3,95.1,51.3"/>
					<path class="st27" d="M131.8,51.3c-2,0-3.7-1.7-3.7-3.7s1.6-3.7,3.7-3.7c1.7,0,2.7,1.2,2.7,1.2l-1,1.2c0,0-0.6-0.8-1.7-0.8
						c-1.2,0-2.1,1-2.1,2.2s1,2.2,2.1,2.2s1.7-0.8,1.7-0.8l1,1.2C134.5,50.1,133.5,51.3,131.8,51.3"/>
					<path class="st27" d="M123.6,43.8c-2.1,0-3.4,1.8-3.4,3.7c0,2.2,1.5,3.7,3.6,3.7s3-1.6,3-1.6l-1.1-0.8c0,0-0.6,1-1.9,1
						c-1.1,0-2-0.7-2.1-1.8h5.2c0,0,0-0.3,0-0.5C127,45.9,126.2,43.8,123.6,43.8 M121.9,46.8c0.1-0.9,0.9-1.6,1.8-1.6
						c1,0,1.7,0.6,1.7,1.6H121.9z"/>
				</g>
			</g>
		</g>
	</g>
	<text transform="matrix(0.9847 0 0 1 12.209 106.9873)" class="st26 st28 st29">SC 5941-1</text>
	<text transform="matrix(0.9847 0 0 1 80.3857 106.9873)" class="st26 st28 st29">SA CER 464990</text>
</g>
<g>
	<g>
		<defs>
			<rect id="SVGID_00000049184010945522347800000005077071310294541486_" x="159.5" y="14.1" width="66.1" height="66.1"/>
		</defs>
		<clipPath id="SVGID_00000093899383664769384630000008214925590473322937_">
			<use xlink:href="#SVGID_00000049184010945522347800000005077071310294541486_"  style="overflow:visible;"/>
		</clipPath>
		<path style="clip-path:url(#SVGID_00000093899383664769384630000008214925590473322937_);fill:#003594;" d="M225.6,46.6
			c0.3,18.2-14.2,33.3-32.5,33.6c-18.2,0.3-33.3-14.2-33.6-32.5c-0.3-18.2,14.2-33.3,32.5-33.6S225.3,28.3,225.6,46.6"/>
		
			<rect x="172.2" y="42.6" style="clip-path:url(#SVGID_00000093899383664769384630000008214925590473322937_);fill:#FFFFFF;" width="2.1" height="10.2"/>
		<path style="clip-path:url(#SVGID_00000093899383664769384630000008214925590473322937_);fill:#FFFFFF;" d="M185.9,50.7
			c0.8-0.8,1.2-1.8,1.2-3.1c0-0.7-0.1-1.4-0.4-2.1c-0.3-0.6-0.7-1.2-1.1-1.7c-0.5-0.5-1-0.8-1.7-1.1s-1.4-0.4-2.1-0.4
			c-1,0-1.9,0.2-2.7,0.7c-0.8,0.5-1.5,1.1-1.9,1.9c-0.5,0.8-0.7,1.7-0.7,2.6c0,0.7,0.1,1.4,0.4,2.1c0.3,0.6,0.7,1.2,1.1,1.6
			c0.5,0.4,1,0.8,1.7,1.1c0.6,0.3,1.3,0.4,2,0.4h6.1v-2.1H185.9z M185,47.6c0,0.6-0.1,1.1-0.4,1.6c-0.3,0.5-0.7,0.9-1.1,1.1
			c-0.5,0.3-1,0.4-1.6,0.4c-0.9,0-1.7-0.3-2.3-0.9c-0.6-0.6-0.9-1.3-0.9-2.2c0-0.6,0.1-1.1,0.4-1.6c0.3-0.5,0.7-0.9,1.2-1.2
			c0.5-0.3,1-0.4,1.6-0.4c0.6,0,1.1,0.1,1.6,0.4c0.5,0.3,0.9,0.7,1.2,1.2C184.9,46.5,185,47,185,47.6"/>
		<polygon style="clip-path:url(#SVGID_00000093899383664769384630000008214925590473322937_);fill:#FFFFFF;" points="196.9,42.6 
			196.9,49.1 192.1,42.6 189.6,42.6 189.6,52.8 191.8,52.8 191.8,45.7 196.8,52.8 199,52.8 199,42.6 		"/>
		<polygon style="clip-path:url(#SVGID_00000093899383664769384630000008214925590473322937_);fill:#FFFFFF;" points="208.4,44.6 
			208.4,42.6 201.3,42.6 201.3,52.8 208.4,52.8 208.4,50.7 203.4,50.7 203.4,48.5 207.4,48.5 207.4,46.4 203.4,46.4 203.4,44.6 		
			"/>
		<polygon style="clip-path:url(#SVGID_00000093899383664769384630000008214925590473322937_);fill:#FFFFFF;" points="210.4,42.6 
			210.4,44.6 213.5,44.6 213.5,52.8 215.7,52.8 215.7,44.6 218.8,44.6 218.8,42.6 		"/>
		<path style="clip-path:url(#SVGID_00000093899383664769384630000008214925590473322937_);fill:#FFFFFF;" d="M179.3,33.8
			c0-0.4,0.4-0.8,0.8-0.8c0.4,0,0.8,0.4,0.8,0.8c0,0.4-0.4,0.8-0.8,0.8C179.6,34.6,179.3,34.3,179.3,33.8"/>
		<path style="clip-path:url(#SVGID_00000093899383664769384630000008214925590473322937_);fill:#FFFFFF;" d="M181.5,32.1
			c0-0.5,0.4-0.8,0.9-0.8c0.5,0,0.8,0.4,0.8,0.9c0,0.5-0.4,0.8-0.9,0.8C181.8,32.9,181.5,32.5,181.5,32.1"/>
		<path style="clip-path:url(#SVGID_00000093899383664769384630000008214925590473322937_);fill:#FFFFFF;" d="M186.7,29.7
			c0-0.5,0.5-0.9,1-0.9c0.5,0,0.9,0.5,0.9,1c0,0.5-0.5,0.9-1,0.9C187,30.7,186.6,30.2,186.7,29.7"/>
		<path style="clip-path:url(#SVGID_00000093899383664769384630000008214925590473322937_);fill:#FFFFFF;" d="M192.3,29.1
			c0-0.6,0.5-1,1.1-1c0.6,0,1,0.5,1,1.1c0,0.6-0.5,1-1.1,1C192.7,30.2,192.3,29.7,192.3,29.1"/>
		<path style="clip-path:url(#SVGID_00000093899383664769384630000008214925590473322937_);fill:#FFFFFF;" d="M195.1,29.5
			c0-0.6,0.5-1.1,1.1-1.1c0.6,0,1.1,0.5,1.1,1.1c0,0.6-0.5,1.1-1.1,1.1C195.6,30.6,195.1,30.1,195.1,29.5"/>
		<path style="clip-path:url(#SVGID_00000093899383664769384630000008214925590473322937_);fill:#FFFFFF;" d="M197.8,30.3
			c0-0.6,0.6-1.1,1.2-1.1s1.1,0.6,1.1,1.2c0,0.6-0.6,1.1-1.2,1.1C198.3,31.4,197.8,30.9,197.8,30.3"/>
		<path style="clip-path:url(#SVGID_00000093899383664769384630000008214925590473322937_);fill:#FFFFFF;" d="M200.4,31.5
			c0-0.7,0.6-1.2,1.3-1.2c0.7,0,1.2,0.6,1.2,1.3c0,0.7-0.6,1.2-1.3,1.2C200.9,32.7,200.4,32.2,200.4,31.5"/>
		<path style="clip-path:url(#SVGID_00000093899383664769384630000008214925590473322937_);fill:#FFFFFF;" d="M172.2,36.3
			c0-0.4,0.3-0.7,0.7-0.7c0.4,0,0.7,0.3,0.7,0.7s-0.3,0.7-0.7,0.7C172.5,37,172.2,36.7,172.2,36.3"/>
		<path style="clip-path:url(#SVGID_00000093899383664769384630000008214925590473322937_);fill:#FFFFFF;" d="M174.2,33.4
			c0-0.4,0.3-0.7,0.8-0.7c0.4,0,0.7,0.3,0.7,0.8c0,0.4-0.3,0.7-0.8,0.7C174.5,34.1,174.1,33.8,174.2,33.4"/>
		<path style="clip-path:url(#SVGID_00000093899383664769384630000008214925590473322937_);fill:#FFFFFF;" d="M179.3,28.7
			c0-0.5,0.4-0.8,0.9-0.8c0.5,0,0.8,0.4,0.8,0.9c0,0.5-0.4,0.8-0.9,0.8C179.6,29.5,179.3,29.1,179.3,28.7"/>
		<path style="clip-path:url(#SVGID_00000093899383664769384630000008214925590473322937_);fill:#FFFFFF;" d="M182.3,27
			c0-0.5,0.4-0.9,0.9-0.9c0.5,0,0.9,0.4,0.9,0.9c0,0.5-0.4,0.9-0.9,0.9C182.7,27.9,182.3,27.5,182.3,27"/>
		<path style="clip-path:url(#SVGID_00000093899383664769384630000008214925590473322937_);fill:#FFFFFF;" d="M185.6,25.8
			c0-0.5,0.5-0.9,1-0.9s0.9,0.5,0.9,1c0,0.5-0.5,0.9-1,0.9C186,26.7,185.6,26.3,185.6,25.8"/>
		<path style="clip-path:url(#SVGID_00000093899383664769384630000008214925590473322937_);fill:#FFFFFF;" d="M189,25.1
			c0-0.6,0.5-1,1-1c0.6,0,1,0.5,1,1c0,0.6-0.5,1-1,1C189.4,26.1,189,25.7,189,25.1"/>
		<path style="clip-path:url(#SVGID_00000093899383664769384630000008214925590473322937_);fill:#FFFFFF;" d="M192.5,25
			c0-0.6,0.5-1,1.1-1c0.6,0,1,0.5,1,1.1c0,0.6-0.5,1-1.1,1C192.9,26.1,192.5,25.6,192.5,25"/>
		<path style="clip-path:url(#SVGID_00000093899383664769384630000008214925590473322937_);fill:#FFFFFF;" d="M195.8,25.4
			c0-0.6,0.5-1.1,1.1-1.1c0.6,0,1.1,0.5,1.1,1.1c0,0.6-0.5,1.1-1.1,1.1C196.3,26.6,195.8,26.1,195.8,25.4"/>
		<path style="clip-path:url(#SVGID_00000093899383664769384630000008214925590473322937_);fill:#FFFFFF;" d="M199.3,26.4
			c0-0.6,0.6-1.1,1.2-1.1c0.6,0,1.1,0.6,1.1,1.2c0,0.6-0.6,1.1-1.2,1.1C199.8,27.6,199.3,27.1,199.3,26.4"/>
		<path style="clip-path:url(#SVGID_00000093899383664769384630000008214925590473322937_);fill:#FFFFFF;" d="M202.4,28
			c0-0.7,0.6-1.2,1.3-1.2c0.7,0,1.2,0.6,1.2,1.3c0,0.7-0.6,1.2-1.3,1.2C202.9,29.2,202.4,28.6,202.4,28"/>
		<path style="clip-path:url(#SVGID_00000093899383664769384630000008214925590473322937_);fill:#FFFFFF;" d="M205.3,30
			c0-0.7,0.6-1.2,1.3-1.2c0.7,0,1.2,0.6,1.2,1.3s-0.6,1.2-1.3,1.2C205.8,31.2,205.3,30.7,205.3,30"/>
		<path style="clip-path:url(#SVGID_00000093899383664769384630000008214925590473322937_);fill:#FFFFFF;" d="M207.8,32.4
			c0-0.7,0.6-1.3,1.4-1.3c0.7,0,1.3,0.6,1.3,1.4c0,0.7-0.6,1.3-1.4,1.3C208.3,33.7,207.8,33.1,207.8,32.4"/>
		<path style="clip-path:url(#SVGID_00000093899383664769384630000008214925590473322937_);fill:#FFFFFF;" d="M167,58.4
			c0-0.5,0.4-0.9,0.9-0.9c0.5,0,0.9,0.4,0.9,0.9c0,0.5-0.4,0.9-0.9,0.9C167.3,59.3,166.9,58.9,167,58.4"/>
		<path style="clip-path:url(#SVGID_00000093899383664769384630000008214925590473322937_);fill:#FFFFFF;" d="M165.5,54.5
			c0-0.5,0.5-1,1-0.9c0.5,0,1,0.5,0.9,1c0,0.5-0.5,1-1,0.9C165.9,55.5,165.4,55.1,165.5,54.5"/>
		<path style="clip-path:url(#SVGID_00000093899383664769384630000008214925590473322937_);fill:#FFFFFF;" d="M164.6,50.4
			c0-0.6,0.5-1,1.1-1c0.6,0,1,0.5,1,1.1c0,0.6-0.5,1-1.1,1C165.1,51.4,164.6,51,164.6,50.4"/>
		<path style="clip-path:url(#SVGID_00000093899383664769384630000008214925590473322937_);fill:#FFFFFF;" d="M164.5,46.2
			c0-0.6,0.5-1.1,1.1-1c0.6,0,1.1,0.5,1,1.1c0,0.6-0.5,1.1-1.1,1C164.9,47.3,164.4,46.8,164.5,46.2"/>
		<path style="clip-path:url(#SVGID_00000093899383664769384630000008214925590473322937_);fill:#FFFFFF;" d="M164.9,42
			c0-0.6,0.5-1.1,1.2-1.1c0.6,0,1.1,0.5,1.1,1.2c0,0.6-0.5,1.1-1.2,1.1C165.4,43.1,164.9,42.6,164.9,42"/>
		<path style="clip-path:url(#SVGID_00000093899383664769384630000008214925590473322937_);fill:#FFFFFF;" d="M166.1,37.9
			c0-0.7,0.6-1.2,1.2-1.1c0.7,0,1.2,0.6,1.1,1.2c0,0.7-0.6,1.2-1.2,1.1C166.6,39.1,166.1,38.6,166.1,37.9"/>
		<path style="clip-path:url(#SVGID_00000093899383664769384630000008214925590473322937_);fill:#FFFFFF;" d="M167.8,34.1
			c0-0.7,0.6-1.2,1.3-1.2c0.7,0,1.2,0.6,1.2,1.3c0,0.7-0.6,1.2-1.3,1.2C168.3,35.4,167.8,34.8,167.8,34.1"/>
		<path style="clip-path:url(#SVGID_00000093899383664769384630000008214925590473322937_);fill:#FFFFFF;" d="M170.2,30.6
			c0-0.7,0.6-1.3,1.3-1.3c0.7,0,1.3,0.6,1.3,1.3c0,0.7-0.6,1.3-1.3,1.3C170.7,31.9,170.1,31.3,170.2,30.6"/>
		<path style="clip-path:url(#SVGID_00000093899383664769384630000008214925590473322937_);fill:#FFFFFF;" d="M173.1,27.5
			c0-0.7,0.6-1.3,1.3-1.3c0.7,0,1.3,0.6,1.3,1.3c0,0.7-0.6,1.3-1.3,1.3C173.6,28.8,173,28.2,173.1,27.5"/>
		<path style="clip-path:url(#SVGID_00000093899383664769384630000008214925590473322937_);fill:#FFFFFF;" d="M176.3,24.9
			c0-0.7,0.6-1.3,1.4-1.3c0.7,0,1.3,0.6,1.3,1.4c0,0.7-0.6,1.3-1.4,1.3C176.9,26.3,176.3,25.7,176.3,24.9"/>
		<path style="clip-path:url(#SVGID_00000093899383664769384630000008214925590473322937_);fill:#FFFFFF;" d="M180,22.9
			c0-0.8,0.7-1.4,1.4-1.4c0.8,0,1.4,0.7,1.4,1.4c0,0.8-0.7,1.4-1.4,1.4C180.6,24.3,180,23.7,180,22.9"/>
		<path style="clip-path:url(#SVGID_00000093899383664769384630000008214925590473322937_);fill:#FFFFFF;" d="M183.9,21.5
			c0-0.8,0.7-1.4,1.5-1.4c0.8,0,1.4,0.7,1.4,1.5c0,0.8-0.7,1.4-1.5,1.4C184.5,23,183.9,22.3,183.9,21.5"/>
		<path style="clip-path:url(#SVGID_00000093899383664769384630000008214925590473322937_);fill:#FFFFFF;" d="M188,20.7
			c0-0.8,0.7-1.5,1.6-1.5c0.8,0,1.5,0.7,1.5,1.6c0,0.8-0.7,1.5-1.6,1.5C188.6,22.2,188,21.5,188,20.7"/>
		<path style="clip-path:url(#SVGID_00000093899383664769384630000008214925590473322937_);fill:#FFFFFF;" d="M192.2,20.6
			c0-0.9,0.8-1.5,1.6-1.5c0.9,0,1.5,0.7,1.5,1.6c0,0.9-0.8,1.5-1.6,1.5C192.9,22.2,192.2,21.4,192.2,20.6"/>
		<path style="clip-path:url(#SVGID_00000093899383664769384630000008214925590473322937_);fill:#FFFFFF;" d="M196.3,21.1
			c0-0.9,0.8-1.6,1.7-1.6c0.9,0,1.6,0.8,1.6,1.7c0,0.9-0.8,1.6-1.7,1.6C197,22.7,196.3,22,196.3,21.1"/>
		<path style="clip-path:url(#SVGID_00000093899383664769384630000008214925590473322937_);fill:#FFFFFF;" d="M176.5,30.8
			c0-0.4,0.4-0.8,0.8-0.8c0.4,0,0.8,0.4,0.8,0.8c0,0.4-0.4,0.8-0.8,0.8C176.9,31.6,176.5,31.3,176.5,30.8"/>
		<path style="clip-path:url(#SVGID_00000093899383664769384630000008214925590473322937_);fill:#FFFFFF;" d="M189.5,29.2
			c0-0.6,0.5-1,1-1c0.5,0,1,0.5,1,1c0,0.6-0.5,1-1,1C189.9,30.2,189.5,29.7,189.5,29.2"/>
		<path style="clip-path:url(#SVGID_00000093899383664769384630000008214925590473322937_);fill:#FFFFFF;" d="M184,30.7
			c0-0.5,0.4-0.9,0.9-0.9c0.5,0,0.9,0.4,0.9,0.9c0,0.5-0.4,0.9-0.9,0.9C184.4,31.6,184,31.1,184,30.7"/>
	</g>
	<g>
		<path class="st27" d="M183.1,61c-0.3,0.3-0.8,0.5-1.3,0.5c-1,0-1.9-0.8-1.9-1.8c0-1,0.8-1.8,1.8-1.8c0.5,0,1,0.2,1.3,0.6l-0.4,0.4
			c-0.2-0.3-0.6-0.4-0.9-0.4c-0.7,0-1.2,0.6-1.2,1.3c0,0.7,0.6,1.2,1.2,1.2c0.3,0,0.7-0.2,0.9-0.4L183.1,61z"/>
		<path class="st27" d="M183.8,61.4v-3.5h2.2v0.6h-1.6v0.8h1.3v0.6h-1.3v0.9h1.6v0.6H183.8z"/>
		<path class="st27" d="M188.8,61.4l-0.9-1.5h-0.4v1.5h-0.6v-3.5h1.4c0.7,0,1.1,0.4,1.1,1c0,0.5-0.3,0.9-0.8,1l0.9,1.5H188.8z
			 M188.3,59.4c0.3,0,0.5-0.2,0.5-0.4c0-0.3-0.2-0.4-0.5-0.4h-0.8v0.9H188.3z"/>
		<path class="st27" d="M191,61.4v-2.9h-1.1v-0.6h2.9v0.6h-1.1v2.9H191z"/>
		<path class="st27" d="M193.5,61.4v-3.5h0.6v3.5H193.5z"/>
		<path class="st27" d="M195,61.4v-3.5h2.2v0.6h-1.6v0.8h1.2v0.6h-1.2v1.5H195z"/>
		<path class="st27" d="M197.9,61.4v-3.5h0.6v3.5H197.9z"/>
		<path class="st27" d="M199.5,61.4v-3.5h2.2v0.6h-1.6v0.8h1.3v0.6h-1.3v0.9h1.6v0.6H199.5z"/>
		<path class="st27" d="M202.5,61.4v-3.5h1c1.1,0,1.9,0.7,1.9,1.8c0,1.1-0.8,1.8-1.9,1.8H202.5z M203.5,60.8c0.7,0,1.3-0.3,1.3-1.2
			c0-0.9-0.6-1.2-1.3-1.2h-0.4v2.3H203.5z"/>
	</g>
	<g>
		<path class="st27" d="M177.1,67.2v-2.7l-0.9,1.4h-0.6l-0.9-1.4v2.7h-0.6v-3.5h0.8l1,1.6l1-1.6h0.8v3.5H177.1z"/>
		<path class="st27" d="M181.1,67.2l-0.3-0.8h-1.5l-0.3,0.8h-0.7l1.4-3.5h0.6l1.4,3.5H181.1z M180.1,64.4l-0.5,1.4h1.1L180.1,64.4z"
			/>
		<path class="st27" d="M184.9,67.2l-1.9-2.7v2.7h-0.6v-3.5h0.8l1.8,2.5v-2.5h0.6v3.5H184.9z"/>
		<path class="st27" d="M188.9,67.2l-0.3-0.8h-1.5l-0.3,0.8h-0.7l1.4-3.5h0.6l1.4,3.5H188.9z M187.9,64.4l-0.5,1.4h1.1L187.9,64.4z"
			/>
		<path class="st27" d="M193.3,65.6c0,0.9-0.5,1.7-1.6,1.7s-1.9-0.8-1.9-1.8c0-1,0.8-1.8,1.8-1.8c0.5,0,1,0.2,1.3,0.6l-0.4,0.4
			c-0.3-0.3-0.6-0.4-0.9-0.4c-0.7,0-1.2,0.6-1.2,1.3c0,0.7,0.5,1.2,1.3,1.2c0.5,0,0.9-0.3,1-0.9h-1.1v-0.6h1.7V65.6z"/>
		<path class="st27" d="M194.1,67.2v-3.5h2.2v0.6h-1.6V65h1.3v0.6h-1.3v0.9h1.6v0.6H194.1z"/>
		<path class="st27" d="M200.1,67.2v-2.7l-0.9,1.4h-0.6l-0.9-1.4v2.7h-0.6v-3.5h0.8l1,1.6l1-1.6h0.8v3.5H200.1z"/>
		<path class="st27" d="M201.7,67.2v-3.5h2.2v0.6h-1.6V65h1.3v0.6h-1.3v0.9h1.6v0.6H201.7z"/>
		<path class="st27" d="M207.3,67.2l-1.9-2.7v2.7h-0.6v-3.5h0.8l1.8,2.5v-2.5h0.6v3.5H207.3z"/>
		<path class="st27" d="M209.8,67.2v-2.9h-1.1v-0.6h2.9v0.6h-1.1v2.9H209.8z"/>
	</g>
	<g>
		<path class="st27" d="M183.4,72c0.2,0.2,0.4,0.5,0.8,0.5c0.4,0,0.6-0.2,0.6-0.5c0-0.7-1.6-0.4-1.6-1.6c0-0.6,0.5-1,1.1-1
			c0.3,0,0.6,0.1,1,0.3l-0.3,0.5c-0.2-0.2-0.4-0.2-0.7-0.2c-0.3,0-0.5,0.1-0.5,0.4c0,0.7,1.6,0.4,1.6,1.6c0,0.6-0.4,1.1-1.2,1.1
			c-0.4,0-0.8-0.1-1.2-0.6L183.4,72z"/>
		<path class="st27" d="M187,72.9v-1.6l-1.3-2h0.7l0.9,1.4l0.9-1.4h0.7l-1.3,2v1.6H187z"/>
		<path class="st27" d="M189.5,72c0.2,0.2,0.4,0.5,0.8,0.5c0.4,0,0.6-0.2,0.6-0.5c0-0.7-1.6-0.4-1.6-1.6c0-0.6,0.5-1,1.1-1
			c0.3,0,0.6,0.1,1,0.3l-0.3,0.5c-0.2-0.2-0.4-0.2-0.7-0.2c-0.3,0-0.5,0.1-0.5,0.4c0,0.7,1.6,0.4,1.6,1.6c0,0.6-0.4,1.1-1.2,1.1
			c-0.4,0-0.8-0.1-1.2-0.6L189.5,72z"/>
		<path class="st27" d="M193,72.9V70h-1.1v-0.6h2.9V70h-1.1v2.9H193z"/>
		<path class="st27" d="M195.4,72.9v-3.5h2.2V70h-1.6v0.8h1.3v0.6h-1.3v0.9h1.6v0.6H195.4z"/>
		<path class="st27" d="M201.4,72.9v-2.7l-0.9,1.4H200l-0.9-1.4v2.7h-0.6v-3.5h0.8l1,1.6l1-1.6h0.8v3.5H201.4z"/>
	</g>
</g>
</svg>
